<svg xmlns="http://www.w3.org/2000/svg" xmlns:xlink="http://www.w3.org/1999/xlink" viewBox="0 0 1359 560.25">
  <g id="basetop" style="isolation: isolate">
    <path d="M1284,354.75h11.25a7.22,7.22,0,0,0,2.25,3.75c.1,3.36-.08,5.76-1.5,7.5-5.64,3.5-15.23,2-22.5,3.75A231.83,231.83,0,0,1,1239,375c-4,.25-8,1.25-12,1.5-25.64,4.4-41.06,4.49-61.5,6.75-10,1.11-19.57.56-29.25,1.5-11,1.06-21.92.62-33,2.25-12.44,1.83-27.57.41-39.75,2.25h-57.75c-34.69,3.16-72.79,1.5-109.5,1.5-13.29,0-30.11,1.85-42-.75-6.79-1.48-15.89.53-21.75-.75H807c-17.88-3.88-43.32.39-61.5-3.75-16.75,0-31.9-.48-50.25,0-19.85-.05-41.32-.75-59.25-.75-14,0-29.66,0-41.93,1-25.57-.52-48.82-.77-72.07-1-54.3,0-106.81-1.5-162-1.5-51.24,0-121.42,1.38-153,.75-17.91.31-33.75-.75-50.25-.75-8.2,0-26.12.53-27.75-.75H115.5c-12.74-.59-33.4-1.73-36-3.75-4.51-1.17-8.8-1.64-11.25-4.5C65.34,370.19,70.39,361,73.5,360c1.9,6.32,7.78,6.62,15,7.5,13.17,1.61,33.14,2.25,50.25,2.25l147,.75h66c15.65-1.46,24.08-.78,36,0,27.48-.44,60-.27,92.25,0,14.31-.28,29.37-.19,43.5-.75,8.6.23,18.21-.51,27-.75,14.91-.41,31.25.75,46.5.75,17.87,0,41.1-.63,61.5.75,13.31.54,22.49.23,33.75.75,30.49-.81,58.5,1.5,87.75,2.25,5.38,1.16,13.79.6,20.25.75,13.8.32,23,1.49,33,1.5,6.5,0,12.3-.24,19.5,0,17.28-.33,24.24-.12,55.5.75H1020c21.54,0,46.28-1.2,66-1.5,8.51-.13,14.63-1.43,24.75-1.5,7.1,0,11.75-1.5,17.25-1.5.8-.63,14.07-.41,24.75-1.5l20.25-.75c16-3.52,34.67-2.46,49.5-6,15.4-3.68,31.31-3.25,45.75-6.75C1273.2,355.8,1276.59,356.26,1284,354.75Z" fill="none" fill-rule="evenodd"/>
  </g>
  <g id="main" style="isolation: isolate">
    <path d="M1106.25,374.25c-31,2.09-64.4,2.9-97.5,3-13.29,0-27.65.43-44.25,0H951.75c-13.31,0-27.12-.26-42-.75h-24l-44.25-.75c-9.6,0-21.7,1-30-.75-14,0-27.25-.75-41.25-.75-22.33-1.58-41.17-2.56-61.5-3-6.78-.15-20.7.19-28.5,0-8.41-.2-17-.36-26.25-.75-8.61-.37-23.87-.65-33-.75-25.59.33-44.5,0-69.75,0l-96.75,1.5c-16.51-.35-28-.55-45.75-.75-6.14.39-15.13.66-21.2.75-10.39-10.46-18.13-17.61-26.8-27.75-3.34-3.91-5.87-6.36-9-10.5-3.25-3-7.25-7.5-10.5-10.5-10.27-7.89-18.87-17.38-28.5-27-7.9-7.88-26.19-20.29-27.75-36.75.79-1.08,1.24-5.73,5.25-7.5,4.35-7,43.49-10.48,72.75-18.75,20-5.65,54.79-16.52,73.5-24.75,12.85-5.66,25.25-13.08,36.75-20.25,15.19-9.47,29-17.44,43.5-27.75,2.83-2,7.65-4.7,10.5-6.75,12.38-8.93,33.92-23.69,42-36,61.87,22.85,125.14,44.09,186,68.25,6.84,2.72,14.79,5.1,21.75,7.5,18.84,6.48,32,12.33,53.25,21,8.25,2.75,16.5,6.25,24.75,9,27.24,11.57,52.25,22.08,80.25,36,4.06,2,9.24,5.6,13.5,7.5,16.15,7.18,27.08,11.81,41.25,18,7.43,3.25,15.8,7.24,24,9.75,7.73,2.37,28.15,4.66,42,1.5,4.38-1,13-4.21,15-3.75,6.31,4.31,10,11.56,14.25,18C1097,327.42,1106,344.31,1106.25,374.25Z" fill="none" fill-rule="evenodd"/>
  </g>
  <g id="flip" style="isolation: isolate">
    <path d="M493.5,55.5c11.9,0,26.73,6,37.5,9,5.83,1.63,13.65.55,18,3.75h-1.5c-4.92,4.3-16.71,7.56-22.5,12-19.17,14.71-21.07,17.53-48,33V106.5c-.11-5.1.95-8.7,2.25-12.75C483,81.91,485.72,63.86,493.5,55.5Z" fill="none" fill-rule="evenodd"/>
  </g>
  <g id="seemfront" style="isolation: isolate">
    <path d="M1119.75,373.5c-4.23.46-9.24.71-13.5.75-2.61-35.3-12.71-51.47-25.5-71.25a118.83,118.83,0,0,0-10.5-12,29.1,29.1,0,0,0,8.25-5.25c1.32.47.73.14,1.5.75,4,3.94,8.66,10.64,12.75,15.75C1099.6,311.41,1116.82,330.32,1119.75,373.5Z" fill="none" fill-rule="evenodd"/>
  </g>
  <g id="topheel" style="isolation: isolate">
    <path d="M128.25,72c13.41,5,29,7.81,40.5,15,36.43,22.69,58.86,52.54,100.5,74.25,9,4.71,19.59,7,30.75,9.75,9.49,1.74,17.25,1.25,25.5,1.5,9.06.48,18,.06,24.75-1.5,7.77-1.8,13.93-3.42,21.75-4.5v.75a3.31,3.31,0,0,0-1.71.36c-10.76,5.17-24.65,8.51-35,8.64-29.71,3.36-66,4.42-87.75-4.5-6.94-2.85-16.26-6.5-21-9-6.41,7.24-11.38,12.31-15.75,18.75-10.38,15.3-22.45,26.76-42,31.5-16.88,4.09-38.61-9.59-51.75-.75-9.1,6.12-15.2,19.8-21,29.25-3.15,5.13-4.52,10.68-9.75,13.5-3.22,1.74-13.41.76-15-1.5,0-3.75.75-6.75.75-10.5.6-3.62,1.36-9.93,2.25-13.5,3.28-13.13,3.91-25.24,8.25-39,8.16-25.88,15.41-55.13,24.75-80.25,5.59-15,7.48-27.31,17.25-37.5C126.4,72.69,127.29,72.66,128.25,72Z" fill="none" fill-rule="evenodd"/>
  </g>
  <g id="topfront" style="isolation: isolate">
    <path d="M1066.5,293.25c-4.88,1.92-13.33,3.35-18.75,3.75a145.81,145.81,0,0,1-17.25,0c-16.81-1.28-25.92-5.47-39-12-12-6-23.65-10.31-36-15.75C942.14,263.36,929,254.82,915.75,249c-10.89-4.79-23.23-10.8-33.75-15-53.57-21.38-97.11-38-151.5-57.75-19.79-7.19-48.31-17.61-67.86-25.56-22-7.94-36.29-11.92-52.14-18.69-15.49-5-30.34-11.56-45-15.75-21.74-6.21-43.24-14.12-62.25-18.75.68-.81,3.69-3.81,4.5-4.5,3.32-4.08,9.78-8.28,14.25-11.25,2.46-1.64,4.24-2.19,6.75-3.75,8.57-5.32,17.63-8.26,26.25-13.5a90.13,90.13,0,0,1,12.75-6.75C572,56.11,578.16,55,582,54c3.47-.87,6.54.82,9-.75A65.31,65.31,0,0,1,603,54c.24,0,2.35-2-3.75,8.25-4.33,7.3-9.65,18.81-5.25,26.25,6.66,10.2,12.4,11.31,18,11.25,4.77-1.37,4.39-1.93,6.75-3,2-3.27,3.61-3.67,4.5-7.5,1.19-2.54,1.82-8,2.25-10.5,1.58-9.13.52-8.69,1.5-13.5.69-2.92,3.06-6.52,3,.75.81,1.2.76,2.88,6,3.75.24-3.9.26-5.26.75-6.75,8.48.74,27.64,9.1,43.5,14.25.35.11.68.3,1,.44-.33.32-.66.67-1,1.06l-.29.32c-.69.67-1.78,1.75-3.46,3.43-3.38,5.73-3.38,4.24-5.25,6.75-.9,1.21-5.83,14.17-6,15,0,0,.57,9.88.75,10.5,1,1.75,5.38,7.4,9.75,8.25,12.86,2.69,25.19-18.23,28.62-33.95,6.74,3.51,13.47,7,20.13,10a203.37,203.37,0,0,0,21.75,8.25c-5.79,17.29-21,28.43-13.5,36.75,7.18,6.62,8.68,9.35,18,11.25,2.11-.29,6.09,5.3,16.5-27.75a53.11,53.11,0,0,0,2.81-6.7q7.23,3.67,14.44,7.45c6.41,3.34,13.08,5.67,19.47,8.76-1.09,2.21-2.28,4.49-3,4.74-2.12,15-3.12,22,3,31.5,1.5.25,4.5,2,6,2.25,3,1.74,8.74,2.46,15-6,1.57-2.12,5.53-13.88,6.75-15.75,0-.34,0-.66,0-1,8.21,4.44,16.6,8.64,24.73,12.23q6.39,2.82,12.73,5.68c-.08,1.83-2.86,5.17-5.23,11.57,0,4.15,2,19.44,8.25,21,5,1.88,5,1.61,8.25,1.5.77-.61,2.42-.62,4.5-6,2.63-5.88,6-11.29,6.63-17.83q20.19,9.38,40,19.11c1.92,1.44,6.14,3.38,5.17,4-2,1.7-.08.49-3,3.75-1.91,4.8-2.42,15.43-1,23.53,4.71,4.92,7.69,3.28,7.7,3.47a16,16,0,0,0,11.25-4.5c3.52-5.75,6.1-12,6.55-16.78q5.36,2.75,10.7,5.53c7.88,4.11,15.69,8.16,23.43,12.21-.06.39-.12.81-.18,1.29-.82,3.83-3.09,16.71-.75,20.25.51,5.32,7.52,11.39,12,12.75,1.71,1.15,5.53,1.37,8.25-.75,3.63-3.85,3.07-13.78,1.47-22.52,12.47,6.74,24.75,13.65,36.78,21,6.48,4,27.07,16.42,29.25,22.5C1073.33,289.67,1071.7,291.21,1066.5,293.25ZM680,79.07" fill="none" fill-rule="evenodd"/>
  </g>
  <g id="mainback" style="isolation: isolate">
    <path d="M502.5,96.75,569.25,117v.75h-.75c-12.41,18.09-31.81,29.05-50.25,41.25-26.5,17.53-55.94,38.1-86.25,51-14.86,6.33-30.59,10.71-45,16.5L367.5,231c-13.24,4.05-26.69,7.26-41.25,10.5-7,.5-11.75,2.5-18.75,3-2.42.8-8.15,2-10.5,3-3.54,1.55-3.83,1.45-7.5,4.5-2.72,2.91-4.74,6.37-3,13.5,2.41,3.33,8.38,11.7,12.75,16.5,6,6.61,15.32,13.47,22.5,21.75,9.75,9.5,17.25,15.25,27,24.75,7.4,7.84,10.76,11.21,18,19.5a65.35,65.35,0,0,0,5.25,4.5c.5,1,6.25,6.5,6.75,7.5,4.21,4.61,5.54,5.81,9,11.25h-9c-8.9-1.07-17.73-.75-24-.75h-61.5l-165-.75a237.94,237.94,0,0,1-33-1.5c-5.19-.59-13.82-.24-20.25-4.5-2.15-3.46-3.12-9.47-3-15.75-.41-7-.76-10.51-.75-16.5.07-29.82.13-54.37,4.5-75.75,4.12.15,8.87.2,11.25-1.5,12.58-13.26,16.5-39.06,36-45,9.1-2.77,21.71,1.45,28.5,3,13.8,3.15,28.34-2.24,36.75-7.5,11-6.91,20.81-23.32,30-33,3.29-3.46,4.92-8.59,10.5-9.75,3.11,3,8,3.92,12,6A112.31,112.31,0,0,0,264,176.25l21,.75c9,1.85,26.24,2,35.25,0h9c5.54-1.23,13.19-.48,18.75-2.25q64.39-20.52,116.25-53.25c10-6.32,19.71-12.39,29.25-18.75C496.64,100.66,500.25,99.68,502.5,96.75Z" fill="none" fill-rule="evenodd"/>
  </g>
  <g id="laces" style="isolation: isolate">
    <path d="M611.25,49.5c3.93-2.66,29.79-1.39,24.4,19.68-7.57-.41-6.62-5.65-6.4-6.93-3.23.71-2.16,7.28-3.75,16.5-.43,2.5-1.06,8-2.25,10.5-.89,3.83-2.53,4.23-4.5,7.5-2.36,1.07-2,1.63-6.75,3-5.6.06-11.34-1-18-11.25-4.4-7.44.92-19,5.25-26.25C602,57.54,602.74,53,611.25,49.5Z" fill="none" fill-rule="evenodd"/>
    <path d="M687,75c2.9-.11,8.79,1.1,10.5,2.25,5.06,1.63,7.27,5.82,7.5,8.25-2.15,15.89-15.4,40.39-29.25,37.5-4.37-.85-8.75-6.5-9.75-8.25-.18-.62-.75-10.5-.75-10.5.17-.83,5.1-13.79,6-15,1.87-2.51,1.87-1,5.25-6.75,9.89-9.89-.23.59,3.75-3.75A9.91,9.91,0,0,1,687,75Z" fill="none" fill-rule="evenodd"/>
    <path d="M747.75,105c2.87-3.34,8-.25,9.75,0,15.55,4.77,15.8,10,9.75,22.5-10.41,33.05-14.39,27.46-16.5,27.75-9.32-1.9-10.82-4.63-18-11.25C724.63,135,741.91,122.8,747.75,105Z" fill="none" fill-rule="evenodd"/>
    <path d="M810,175.5c-1.5-.25-4.5-2-6-2.25-6.12-9.52-5.12-16.52-3-31.5,1.32-.47,4.48-8.39,5.25-9,7.08-3.48,11.39,3.72,18.75,7.5.42,1.2,7.27,1.46,6.75,13.5-1.22,1.87-5.18,13.63-6.75,15.75C818.74,178,813,177.24,810,175.5Z" fill="none" fill-rule="evenodd"/>
    <path d="M866.25,168.75c-4.57-1.69,4.34-6.49,13.5-1.5,7.69,2.62,12.16,5.17,12,11.25,0,7.67-3.81,13.67-6.75,20.25-2.08,5.38-3.73,5.39-4.5,6-3.21.11-3.2.38-8.25-1.5-6.2-1.56-8.26-16.85-8.25-21C867.7,172.24,872.43,169.7,866.25,168.75Z" fill="none" fill-rule="evenodd"/>
    <path d="M930.75,198.75c11-3.86,24,6.51,27,9.75,2,4.77-1.08,13.72-6,21.75a16,16,0,0,1-11.25,4.5c0-.19-3,1.45-7.7-3.47-1.47-8.1-1-18.73,1-23.53,2.92-3.26,1-2.05,3-3.75C938.07,203.19,929.71,199.86,930.75,198.75Z" fill="none" fill-rule="evenodd"/>
    <path d="M1011.75,264.75c-2.72,2.12-6.54,1.9-8.25.75-4.48-1.36-11.49-7.43-12-12.75-2.34-3.54-.07-16.42.75-20.25.57-4.81,1.5-5,2.25-5.25,1.76-1.26,6-.63,10.5,2.25,3.75,2.35,5.51,3.55,7.28,8.17C1014.48,247.21,1016,260.2,1011.75,264.75Z" fill="none" fill-rule="evenodd"/>
  </g>
  <g id="snout" style="isolation: isolate">
    <path d="M1286.25,354.75c-6.63.93-7.22,1.18-10.5,1.5-4.49.82-7.82,1.64-12,2.25-7.22,1.05-14.86,2.41-20.25,3-9.37,1-17.87,3-25.5,3.75-17.12,1.69-38.25,3.9-54,5.25-13.49.41-17.94,1.23-32.25,1.5-4.75.72-7.48.91-12,1.5-1.52-6.94-.76-8.54-2.25-13.5.08-3.48-1.5-6.5-1.5-8.25-.16-.4-1.08-5.62-1.5-7.5-1.23-5.49-1.8-5.5-3.75-10.5A105.29,105.29,0,0,0,1101,315c-1.37-2.19-4.35-7.88-6-9.75-3.43-3.89-5.78-7.17-9-11.25a123.09,123.09,0,0,0-12.75-14.25c-4.18-3.89-8.31-6.36-12.75-10.5,25.63-.66,33.94,1.38,57.75,5.25,7.8,1.31,16,2.47,18.75,3,2.51.56,13.45,2.51,16.5,3,5.3.7,5.55.77,9.45,1.21,1.62.55,5.86.66,7.16,1.11,4.52.61,6.47.85,10.39,1.43a84.16,84.16,0,0,1,11.25,2.25c2.5.6,5,1.05,7.5,1.5,1.23.4,4.73,1.23,6,1.5,1.81.39,5.83,1.66,9,2.25,1.28.24,8.51,1.83,9.75,2.25,8.78,3,11.65,3.57,19.5,6a78.21,78.21,0,0,1,12.75,6C1272,316.1,1283.18,329.12,1286.25,354.75Z" fill="none" fill-rule="evenodd"/>
  </g>
  <g id="frontendbase" style="isolation: isolate">
    <path d="M959.25,506.25c-1.54-12.57-1.28-33-.75-46.5.27-7-.08-16.44,0-24.75.09-10.37-.89-25.64,0-40.5.32-1.66.08-4.12,1.5-3.75,10-.4,16.53-.49,23.56-.88,9-.49,27.37-.63,45.44-.62h23.25c7.23-.67,18.7-1.17,26.25-1.5,8.16-.35,17.79-1.06,27.75-1.5,4.41-.2,9.24-.46,15-.75,3.07-.15,10.45-.58,12-.75,3.68-.41,10.51-.44,14.25-.75,6.38-.54,7.19-.33,18.35-1.06,2.11-.34,13.93-1.18,21.4-1.94,10.35-.9,21-1.48,29.25-3,11.67-1.29,22.33-2.82,30.75-3.75,16.11-2.32,24.7-5.49,48-6.75,2.93-.55,5.1,1.71,6.75,7.5,0,4,1.5,10.25,1.5,14.25,1.84,7.65.42,16.8,0,24.75-.57,10.69-1.11,15.87-1.5,25.5a67.11,67.11,0,0,1-1.5,13.5c-1.25,4.76-2.69,11.08-5.25,15-9.7,14.86-48.83,18.27-59.25,19.5-5.76.38-15.42,3-27,3.75-23.79,2.72-43,5.72-60.75,6.75-9.21.91-15.52,1.64-26.25,2.25-10.55,1-17.55.59-27,1.5a176.45,176.45,0,0,1-19.5.75c-14.69,1.2-23.22,1.5-36.75,1.5-4.5,0-15,.75-19.5.75C999.25,505.89,979.32,506.19,959.25,506.25Z" fill="none" fill-rule="evenodd"/>
    <path d="M95.34,504.31c-6.64-.71-12.56.62-21.09-5.56-3.06-2-3.8-5-5.25-8.25-.25-6.75-1.64-13.56-.75-20.25-2.8-20.65-2.4-31.41-6.75-63-1-4.95,3.14-5.48,3-8.25-.28-5.61.07-16.08-.75-20.25,1.14-2.54,2.34-4.14,5.25-4.5,5,1.75,9.25,3.5,14.25,5.25,1.56,4.63,2.51,10.78,2.25,24C83.89,407.41,82,407,84,414c1.89,6.68,3.15,19.14,5.25,41.25.25,4.5,1.25,9.75,1.5,14.25C92.5,481.4,97,498.21,95.34,504.31Z" fill="none" fill-rule="evenodd"/>
  </g>
  <g id="middlebase" style="isolation: isolate">
    <path d="M959.25,390.75c-.28,7.67-.52,11.06-.75,19.5,0,1.27-.29,11,0,12V441l-.75,64.5c-7.19,2.41-19.87.81-28.5.75-3.74,2.32-11.32,0-16.5,0-15.23,0-30.53-1-45-1.5H752.25c-6.1-1.31-15.46.76-22.5-.75-9-1.92-22-.83-32.25-.75-37.77.29-77,.75-115.5.75l-55.5-.75c-16.59,3.57-36.55,2.25-55.5,2.25H450.75c-8.49,1.82-20.58-1.27-30,.75-5.14,1.11-13.42-.56-19.5.75-17.1,3.67-41.35,1.5-60.75,1.5h-159c-10.31-2.22-22.51.92-33.75-1.5L96,504.75c-.71-12.72-4.57-27-6-39-2-17.22-3.64-38.34-6.75-54.75-.61-3.23,1-4.33,1.5-6,2-6.81-.35-19-1.5-24.75.25,0-.25-.75,0-.75,0-.25.75.25.75,0,7.3,1.37,17,2,26.25,2.25,12.68.32,26.46,1.49,39.75,1.5h29.25c7.79.28,19.49.75,27,.75l54-.75H426l69.75,1.5c14.48,0,32.69-2.06,45.75.75l95.25-.75,109.5.75c16.87,3.64,37.26-.6,54,3H817.5c21.49.72,29.17.42,39,1.5,5.75,0,16.75.75,22.5.75,7.21.21,14-.14,19.5,0C926.11,391.43,937.06,390.68,959.25,390.75Z" fill="none" fill-rule="evenodd"/>
  </g>
  <g id="background">
    <path d="M0,0V560.24H1359V0ZM1303.5,414c-.57,10.71-1.11,15.87-1.5,25.52a67.34,67.34,0,0,1-1.5,13.5c-1.25,4.76-2.69,11.07-5.25,15-9.7,14.86-48.83,18.28-59.25,19.5-5.76.39-15.42,3-27,3.75-23.79,2.73-43,5.73-60.75,6.75-9.21.92-15.52,1.65-26.25,2.25-10.55,1-17.55.59-27,1.5a174,174,0,0,1-19.5.75c-14.69,1.21-23.22,1.5-36.75,1.5-4.5,0-15,.75-19.5.75-20,1.15-39.93,1.46-60,1.5h-4.54c-7.36,1.29-17.94.07-25.46,0-3.74,2.33-11.32,0-16.5,0-15.23,0-30.53-1-45-1.5H752.25c-6.1-1.31-15.46.78-22.5-.75-9-1.91-22-.82-32.25-.75-37.77.29-77,.77-115.5.75l-55.5-.75c-16.59,3.59-36.55,2.25-55.5,2.25H450.75c-8.49,1.84-20.58-1.27-30,.75-5.14,1.11-13.42-.54-19.5.77-17.1,3.66-41.35,1.48-60.75,1.5h-159c-10.31-2.24-22.51.91-33.75-1.5L96,504.74c.11,1.16-1-.16-.24-.06-.13-.39-.3-.82-.42-.36-6.64-.73-12.56.61-21.09-5.58-3.06-2-3.8-5-5.25-8.23-.25-6.75-1.64-13.56-.75-20.27-2.8-20.64-2.4-31.4-6.75-63-1-4.94,3.14-5.47,3-8.23-.28-5.62.07-16.09-.75-20.27,1-2.34,2.17-3.86,4.62-4.38l-.12-.12c-2.88-4,2-13,5.15-14.2A39.69,39.69,0,0,1,72,348c-.41-7-.76-10.52-.75-16.52.07-29.82.13-54.37,4.5-75.75,1.06,0,2.16.08,3.25.08-3.45-.23-6.88-1.09-7.75-2.31,0-3.75.75-6.77.75-10.5.6-3.63,1.36-9.94,2.25-13.5,3.28-13.13,3.91-25.25,8.25-39,8.16-25.9,15.41-55.13,24.75-80.27,5.59-15,7.48-27.31,17.25-37.5,1.9,0,2.79-.08,3.75-.73,13.41,5,29,7.81,40.5,15,36.43,22.67,58.86,52.53,100.5,74.23,9,4.73,19.59,7,30.75,9.77,9.49,1.73,17.25,1.23,25.5,1.5,9.06.46,18,.06,24.75-1.5,7.77-1.81,13.93-3.42,21.75-4.52v0a489.43,489.43,0,0,0,92.25-45c5.4-3.42,10.71-6.77,16-10.11L477,113.24v-6.73c-.11-5.1.95-8.71,2.25-12.77,3.79-11.83,6.47-29.89,14.25-38.25,11.9,0,26.73,6,37.5,9,5.66,1.58,13.2.61,17.61,3.48,2.15-1.07,4.28-2.21,6.39-3.48a89.22,89.22,0,0,1,12.75-6.77C572,56.1,578.16,55,582,54c3.47-.87,6.54.81,9-.77A64.42,64.42,0,0,1,603,54c.16,0,1.2-.94-.12,1.76,1.59-2.29,3.9-4.42,8.37-6.26C614.91,47,637.51,48,636.32,65.05a10.3,10.3,0,0,1,.43-2c8.48.72,27.64,9.08,43.5,14.23.35.12.68.3,1,.44C682.66,76.34,684,75.57,687,75c2.9-.1,8.79,1.1,10.5,2.25,5.06,1.65,7.27,5.83,7.5,8.27-.17,1.27-.43,2.61-.74,4,0-.15.07-.29.11-.45,6.74,3.53,13.47,7,20.13,10a203.21,203.21,0,0,0,21.75,8.23,64.81,64.81,0,0,1-6.19,12.85A66.44,66.44,0,0,0,747.75,105c2.87-3.35,8-.27,9.75,0,12.42,3.79,15.07,7.92,12.56,15.78,4.82,2.47,9.63,4.94,14.44,7.45,6.41,3.35,13.08,5.68,19.47,8.77a27.79,27.79,0,0,1,2.28-4.27c7.08-3.47,11.39,3.73,18.75,7.5.41,1.17,6.89,1.46,6.77,12.54,8.21,4.44,16.6,8.63,24.73,12.23q6.39,2.82,12.72,5.66c0-1-.75-1.58-3-1.93-4.57-1.67,4.34-6.48,13.5-1.5,7.69,2.62,12.16,5.18,12,11.27a21.08,21.08,0,0,1-.12,2.4q20.19,9.38,40,19.12c-.7-.52-1.11-1-.83-1.29,11-3.85,24,6.53,27,9.77a9.19,9.19,0,0,1,.62,3.53c0,.47,0,.93-.07,1.43q5.36,2.75,10.7,5.54,11.82,6.13,23.43,12.2c.57-3.55,1.39-3.74,2.07-4,1.76-1.25,6-.63,10.5,2.27,3.75,2.34,5.51,3.53,7.28,8.16.33,1.45.65,3,.94,4.56,12.47,6.74,24.75,13.65,36.78,21,2.74,1.68,8,4.88,13.32,8.47-.93-.76-1.87-1.56-2.82-2.47,25.63-.65,33.94,1.38,57.75,5.27,7.8,1.29,16,2.46,18.75,3,2.51.54,13.45,2.5,16.5,3,5.3.69,5.55.77,9.45,1.21,1.62.54,5.86.64,7.16,1.1,4.52.61,6.47.84,10.39,1.42a85.93,85.93,0,0,1,11.25,2.27c2.5.58,5,1,7.5,1.5,1.23.4,4.73,1.21,6,1.5,1.81.38,5.83,1.65,9,2.23,1.28.24,8.51,1.84,9.75,2.25,8.78,3,11.65,3.58,19.5,6a78.21,78.21,0,0,1,12.75,6c15.73,10.08,26.93,23.1,30,48.73h9a7.14,7.14,0,0,0,2.25,3.75c.1,3.36-.08,5.77-1.5,7.52a14.71,14.71,0,0,1-4.49,1.71l3.74-.23c2.93-.54,5.1,1.72,6.75,7.5,0,4,1.5,10.27,1.5,14.25C1305.34,396.9,1303.92,406,1303.5,414Z" fill="none" fill-rule="evenodd"/>
  </g>
  <g id="shadow_Image" data-name="shadow Image">
    <image id="shadow_Image-2" data-name="shadow Image" width="1812" height="747" transform="scale(0.75)" xlink:href="shoe1.png"/>
  </g>
  <g id="shadow_Image-3" data-name="shadow Image">
    <image id="shadow_Image-4" data-name="shadow Image" width="1812" height="747" transform="scale(0.75)" xlink:href="shoe2.png"/>
  </g>
</svg>
